<svg width="343" height="734" viewBox="0 0 343 734" fill="none" xmlns="http://www.w3.org/2000/svg">
<path d="M93.5 720.406C90.14 720.406 87.4062 723.14 87.4062 726.5C87.4062 729.86 90.14 732.594 93.5 732.594C96.86 732.594 99.5938 729.86 99.5938 726.5C99.5938 723.14 96.86 720.406 93.5 720.406ZM93.5 721.344C96.343 721.344 98.6562 723.657 98.6562 726.5C98.6562 729.343 96.343 731.656 93.5 731.656C90.657 731.656 88.3438 729.343 88.3438 726.5C88.3438 723.657 90.657 721.344 93.5 721.344ZM92.5625 723.219C92.4382 723.219 92.319 723.268 92.231 723.356C92.1431 723.444 92.0938 723.563 92.0938 723.688C92.0938 723.812 92.1431 723.931 92.231 724.019C92.319 724.107 92.4382 724.156 92.5625 724.156C92.6868 724.156 92.806 724.107 92.894 724.019C92.9819 723.931 93.0312 723.812 93.0312 723.688C93.0312 723.563 92.9819 723.444 92.894 723.356C92.806 723.268 92.6868 723.219 92.5625 723.219ZM95.1406 723.688C94.9541 723.688 94.7753 723.762 94.6434 723.893C94.5116 724.025 94.4375 724.204 94.4375 724.391C94.4375 724.577 94.5116 724.756 94.6434 724.888C94.7753 725.02 94.9541 725.094 95.1406 725.094C95.3271 725.094 95.5059 725.02 95.6378 724.888C95.7697 724.756 95.8438 724.577 95.8438 724.391C95.8438 724.204 95.7697 724.025 95.6378 723.893C95.5059 723.762 95.3271 723.688 95.1406 723.688ZM91.1562 725.094C90.9076 725.094 90.6692 725.193 90.4933 725.368C90.3175 725.544 90.2188 725.783 90.2188 726.031C90.2188 726.28 90.3175 726.518 90.4933 726.694C90.6692 726.87 90.9076 726.969 91.1562 726.969C91.4049 726.969 91.6433 726.87 91.8192 726.694C91.995 726.518 92.0938 726.28 92.0938 726.031C92.0938 725.783 91.995 725.544 91.8192 725.368C91.6433 725.193 91.4049 725.094 91.1562 725.094ZM93.9688 726.031C93.8444 726.031 93.7252 726.081 93.6373 726.169C93.5494 726.256 93.5 726.376 93.5 726.5C93.5 726.624 93.5494 726.744 93.6373 726.831C93.7252 726.919 93.8444 726.969 93.9688 726.969C94.0931 726.969 94.2123 726.919 94.3002 726.831C94.3881 726.744 94.4375 726.624 94.4375 726.5C94.4375 726.376 94.3881 726.256 94.3002 726.169C94.2123 726.081 94.0931 726.031 93.9688 726.031ZM96.3125 726.5C96.1882 726.5 96.069 726.549 95.981 726.637C95.8931 726.725 95.8438 726.844 95.8438 726.969C95.8438 727.093 95.8931 727.212 95.981 727.3C96.069 727.388 96.1882 727.438 96.3125 727.438C96.4368 727.438 96.556 727.388 96.644 727.3C96.7319 727.212 96.7812 727.093 96.7812 726.969C96.7812 726.844 96.7319 726.725 96.644 726.637C96.556 726.549 96.4368 726.5 96.3125 726.5ZM91.8594 727.906C91.6729 727.906 91.4941 727.98 91.3622 728.112C91.2303 728.244 91.1562 728.423 91.1562 728.609C91.1562 728.796 91.2303 728.975 91.3622 729.107C91.4941 729.238 91.6729 729.312 91.8594 729.312C92.0459 729.312 92.2247 729.238 92.3566 729.107C92.4884 728.975 92.5625 728.796 92.5625 728.609C92.5625 728.423 92.4884 728.244 92.3566 728.112C92.2247 727.98 92.0459 727.906 91.8594 727.906ZM95.1406 728.375C94.9541 728.375 94.7753 728.449 94.6434 728.581C94.5116 728.713 94.4375 728.892 94.4375 729.078C94.4375 729.265 94.5116 729.443 94.6434 729.575C94.7753 729.707 94.9541 729.781 95.1406 729.781C95.3271 729.781 95.5059 729.707 95.6378 729.575C95.7697 729.443 95.8438 729.265 95.8438 729.078C95.8438 728.892 95.7697 728.713 95.6378 728.581C95.5059 728.449 95.3271 728.375 95.1406 728.375Z" fill="#DAD1BF"/>
<path d="M225.5 705.406C222.14 705.406 219.406 708.14 219.406 711.5C219.406 714.86 222.14 717.594 225.5 717.594C228.86 717.594 231.594 714.86 231.594 711.5C231.594 708.14 228.86 705.406 225.5 705.406ZM225.5 706.344C228.343 706.344 230.656 708.657 230.656 711.5C230.656 714.343 228.343 716.656 225.5 716.656C222.657 716.656 220.344 714.343 220.344 711.5C220.344 708.657 222.657 706.344 225.5 706.344ZM224.562 708.219C224.438 708.219 224.319 708.268 224.231 708.356C224.143 708.444 224.094 708.563 224.094 708.688C224.094 708.812 224.143 708.931 224.231 709.019C224.319 709.107 224.438 709.156 224.562 709.156C224.687 709.156 224.806 709.107 224.894 709.019C224.982 708.931 225.031 708.812 225.031 708.688C225.031 708.563 224.982 708.444 224.894 708.356C224.806 708.268 224.687 708.219 224.562 708.219ZM227.141 708.688C226.954 708.688 226.775 708.762 226.643 708.893C226.512 709.025 226.438 709.204 226.438 709.391C226.438 709.577 226.512 709.756 226.643 709.888C226.775 710.02 226.954 710.094 227.141 710.094C227.327 710.094 227.506 710.02 227.638 709.888C227.77 709.756 227.844 709.577 227.844 709.391C227.844 709.204 227.77 709.025 227.638 708.893C227.506 708.762 227.327 708.688 227.141 708.688ZM223.156 710.094C222.908 710.094 222.669 710.193 222.493 710.368C222.318 710.544 222.219 710.783 222.219 711.031C222.219 711.28 222.318 711.518 222.493 711.694C222.669 711.87 222.908 711.969 223.156 711.969C223.405 711.969 223.643 711.87 223.819 711.694C223.995 711.518 224.094 711.28 224.094 711.031C224.094 710.783 223.995 710.544 223.819 710.368C223.643 710.193 223.405 710.094 223.156 710.094ZM225.969 711.031C225.844 711.031 225.725 711.081 225.637 711.169C225.549 711.256 225.5 711.376 225.5 711.5C225.5 711.624 225.549 711.744 225.637 711.831C225.725 711.919 225.844 711.969 225.969 711.969C226.093 711.969 226.212 711.919 226.3 711.831C226.388 711.744 226.438 711.624 226.438 711.5C226.438 711.376 226.388 711.256 226.3 711.169C226.212 711.081 226.093 711.031 225.969 711.031ZM228.312 711.5C228.188 711.5 228.069 711.549 227.981 711.637C227.893 711.725 227.844 711.844 227.844 711.969C227.844 712.093 227.893 712.212 227.981 712.3C228.069 712.388 228.188 712.438 228.312 712.438C228.437 712.438 228.556 712.388 228.644 712.3C228.732 712.212 228.781 712.093 228.781 711.969C228.781 711.844 228.732 711.725 228.644 711.637C228.556 711.549 228.437 711.5 228.312 711.5ZM223.859 712.906C223.673 712.906 223.494 712.98 223.362 713.112C223.23 713.244 223.156 713.423 223.156 713.609C223.156 713.796 223.23 713.975 223.362 714.107C223.494 714.238 223.673 714.312 223.859 714.312C224.046 714.312 224.225 714.238 224.357 714.107C224.488 713.975 224.562 713.796 224.562 713.609C224.562 713.423 224.488 713.244 224.357 713.112C224.225 712.98 224.046 712.906 223.859 712.906ZM227.141 713.375C226.954 713.375 226.775 713.449 226.643 713.581C226.512 713.713 226.438 713.892 226.438 714.078C226.438 714.265 226.512 714.443 226.643 714.575C226.775 714.707 226.954 714.781 227.141 714.781C227.327 714.781 227.506 714.707 227.638 714.575C227.77 714.443 227.844 714.265 227.844 714.078C227.844 713.892 227.77 713.713 227.638 713.581C227.506 713.449 227.327 713.375 227.141 713.375Z" fill="#DAD1BF"/>
<path d="M173.5 50.4062C170.14 50.4062 167.406 53.14 167.406 56.5C167.406 59.86 170.14 62.5938 173.5 62.5938C176.86 62.5938 179.594 59.86 179.594 56.5C179.594 53.14 176.86 50.4062 173.5 50.4062ZM173.5 51.3438C176.343 51.3438 178.656 53.657 178.656 56.5C178.656 59.343 176.343 61.6562 173.5 61.6562C170.657 61.6562 168.344 59.343 168.344 56.5C168.344 53.657 170.657 51.3438 173.5 51.3438ZM172.562 53.2188C172.438 53.2188 172.319 53.2681 172.231 53.356C172.143 53.444 172.094 53.5632 172.094 53.6875C172.094 53.8118 172.143 53.931 172.231 54.019C172.319 54.1069 172.438 54.1562 172.562 54.1562C172.687 54.1562 172.806 54.1069 172.894 54.019C172.982 53.931 173.031 53.8118 173.031 53.6875C173.031 53.5632 172.982 53.444 172.894 53.356C172.806 53.2681 172.687 53.2188 172.562 53.2188ZM175.141 53.6875C174.954 53.6875 174.775 53.7616 174.643 53.8934C174.512 54.0253 174.438 54.2041 174.438 54.3906C174.438 54.5771 174.512 54.7559 174.643 54.8878C174.775 55.0197 174.954 55.0938 175.141 55.0938C175.327 55.0938 175.506 55.0197 175.638 54.8878C175.77 54.7559 175.844 54.5771 175.844 54.3906C175.844 54.2041 175.77 54.0253 175.638 53.8934C175.506 53.7616 175.327 53.6875 175.141 53.6875ZM171.156 55.0938C170.908 55.0938 170.669 55.1925 170.493 55.3683C170.318 55.5442 170.219 55.7826 170.219 56.0312C170.219 56.2799 170.318 56.5183 170.493 56.6942C170.669 56.87 170.908 56.9688 171.156 56.9688C171.405 56.9688 171.643 56.87 171.819 56.6942C171.995 56.5183 172.094 56.2799 172.094 56.0312C172.094 55.7826 171.995 55.5442 171.819 55.3683C171.643 55.1925 171.405 55.0938 171.156 55.0938ZM173.969 56.0312C173.844 56.0312 173.725 56.0806 173.637 56.1685C173.549 56.2565 173.5 56.3757 173.5 56.5C173.5 56.6243 173.549 56.7435 173.637 56.8315C173.725 56.9194 173.844 56.9688 173.969 56.9688C174.093 56.9688 174.212 56.9194 174.3 56.8315C174.388 56.7435 174.438 56.6243 174.438 56.5C174.438 56.3757 174.388 56.2565 174.3 56.1685C174.212 56.0806 174.093 56.0312 173.969 56.0312ZM176.312 56.5C176.188 56.5 176.069 56.5494 175.981 56.6373C175.893 56.7252 175.844 56.8444 175.844 56.9688C175.844 57.0931 175.893 57.2123 175.981 57.3002C176.069 57.3881 176.188 57.4375 176.312 57.4375C176.437 57.4375 176.556 57.3881 176.644 57.3002C176.732 57.2123 176.781 57.0931 176.781 56.9688C176.781 56.8444 176.732 56.7252 176.644 56.6373C176.556 56.5494 176.437 56.5 176.312 56.5ZM171.859 57.9062C171.673 57.9062 171.494 57.9803 171.362 58.1122C171.23 58.2441 171.156 58.4229 171.156 58.6094C171.156 58.7959 171.23 58.9747 171.362 59.1066C171.494 59.2384 171.673 59.3125 171.859 59.3125C172.046 59.3125 172.225 59.2384 172.357 59.1066C172.488 58.9747 172.562 58.7959 172.562 58.6094C172.562 58.4229 172.488 58.2441 172.357 58.1122C172.225 57.9803 172.046 57.9062 171.859 57.9062ZM175.141 58.375C174.954 58.375 174.775 58.4491 174.643 58.5809C174.512 58.7128 174.438 58.8916 174.438 59.0781C174.438 59.2646 174.512 59.4434 174.643 59.5753C174.775 59.7072 174.954 59.7812 175.141 59.7812C175.327 59.7812 175.506 59.7072 175.638 59.5753C175.77 59.4434 175.844 59.2646 175.844 59.0781C175.844 58.8916 175.77 58.7128 175.638 58.5809C175.506 58.4491 175.327 58.375 175.141 58.375Z" fill="#DAD1BF"/>
<path d="M317.5 674.406C314.14 674.406 311.406 677.14 311.406 680.5C311.406 683.86 314.14 686.594 317.5 686.594C320.86 686.594 323.594 683.86 323.594 680.5C323.594 677.14 320.86 674.406 317.5 674.406ZM317.5 675.344C320.343 675.344 322.656 677.657 322.656 680.5C322.656 683.343 320.343 685.656 317.5 685.656C314.657 685.656 312.344 683.343 312.344 680.5C312.344 677.657 314.657 675.344 317.5 675.344ZM316.562 677.219C316.438 677.219 316.319 677.268 316.231 677.356C316.143 677.444 316.094 677.563 316.094 677.688C316.094 677.812 316.143 677.931 316.231 678.019C316.319 678.107 316.438 678.156 316.562 678.156C316.687 678.156 316.806 678.107 316.894 678.019C316.982 677.931 317.031 677.812 317.031 677.688C317.031 677.563 316.982 677.444 316.894 677.356C316.806 677.268 316.687 677.219 316.562 677.219ZM319.141 677.688C318.954 677.688 318.775 677.762 318.643 677.893C318.512 678.025 318.438 678.204 318.438 678.391C318.438 678.577 318.512 678.756 318.643 678.888C318.775 679.02 318.954 679.094 319.141 679.094C319.327 679.094 319.506 679.02 319.638 678.888C319.77 678.756 319.844 678.577 319.844 678.391C319.844 678.204 319.77 678.025 319.638 677.893C319.506 677.762 319.327 677.688 319.141 677.688ZM315.156 679.094C314.908 679.094 314.669 679.193 314.493 679.368C314.318 679.544 314.219 679.783 314.219 680.031C314.219 680.28 314.318 680.518 314.493 680.694C314.669 680.87 314.908 680.969 315.156 680.969C315.405 680.969 315.643 680.87 315.819 680.694C315.995 680.518 316.094 680.28 316.094 680.031C316.094 679.783 315.995 679.544 315.819 679.368C315.643 679.193 315.405 679.094 315.156 679.094ZM317.969 680.031C317.844 680.031 317.725 680.081 317.637 680.169C317.549 680.256 317.5 680.376 317.5 680.5C317.5 680.624 317.549 680.744 317.637 680.831C317.725 680.919 317.844 680.969 317.969 680.969C318.093 680.969 318.212 680.919 318.3 680.831C318.388 680.744 318.438 680.624 318.438 680.5C318.438 680.376 318.388 680.256 318.3 680.169C318.212 680.081 318.093 680.031 317.969 680.031ZM320.312 680.5C320.188 680.5 320.069 680.549 319.981 680.637C319.893 680.725 319.844 680.844 319.844 680.969C319.844 681.093 319.893 681.212 319.981 681.3C320.069 681.388 320.188 681.438 320.312 681.438C320.437 681.438 320.556 681.388 320.644 681.3C320.732 681.212 320.781 681.093 320.781 680.969C320.781 680.844 320.732 680.725 320.644 680.637C320.556 680.549 320.437 680.5 320.312 680.5ZM315.859 681.906C315.673 681.906 315.494 681.98 315.362 682.112C315.23 682.244 315.156 682.423 315.156 682.609C315.156 682.796 315.23 682.975 315.362 683.107C315.494 683.238 315.673 683.312 315.859 683.312C316.046 683.312 316.225 683.238 316.357 683.107C316.488 682.975 316.562 682.796 316.562 682.609C316.562 682.423 316.488 682.244 316.357 682.112C316.225 681.98 316.046 681.906 315.859 681.906ZM319.141 682.375C318.954 682.375 318.775 682.449 318.643 682.581C318.512 682.713 318.438 682.892 318.438 683.078C318.438 683.265 318.512 683.443 318.643 683.575C318.775 683.707 318.954 683.781 319.141 683.781C319.327 683.781 319.506 683.707 319.638 683.575C319.77 683.443 319.844 683.265 319.844 683.078C319.844 682.892 319.77 682.713 319.638 682.581C319.506 682.449 319.327 682.375 319.141 682.375Z" fill="#DAD1BF"/>
<path d="M35.5 628.406C32.14 628.406 29.4062 631.14 29.4062 634.5C29.4062 637.86 32.14 640.594 35.5 640.594C38.86 640.594 41.5938 637.86 41.5938 634.5C41.5938 631.14 38.86 628.406 35.5 628.406ZM35.5 629.344C38.343 629.344 40.6562 631.657 40.6562 634.5C40.6562 637.343 38.343 639.656 35.5 639.656C32.657 639.656 30.3438 637.343 30.3438 634.5C30.3438 631.657 32.657 629.344 35.5 629.344ZM34.5625 631.219C34.4382 631.219 34.319 631.268 34.231 631.356C34.1431 631.444 34.0938 631.563 34.0938 631.688C34.0938 631.812 34.1431 631.931 34.231 632.019C34.319 632.107 34.4382 632.156 34.5625 632.156C34.6868 632.156 34.806 632.107 34.894 632.019C34.9819 631.931 35.0312 631.812 35.0312 631.688C35.0312 631.563 34.9819 631.444 34.894 631.356C34.806 631.268 34.6868 631.219 34.5625 631.219ZM37.1406 631.688C36.9541 631.688 36.7753 631.762 36.6434 631.893C36.5116 632.025 36.4375 632.204 36.4375 632.391C36.4375 632.577 36.5116 632.756 36.6434 632.888C36.7753 633.02 36.9541 633.094 37.1406 633.094C37.3271 633.094 37.5059 633.02 37.6378 632.888C37.7697 632.756 37.8438 632.577 37.8438 632.391C37.8438 632.204 37.7697 632.025 37.6378 631.893C37.5059 631.762 37.3271 631.688 37.1406 631.688ZM33.1562 633.094C32.9076 633.094 32.6692 633.193 32.4933 633.368C32.3175 633.544 32.2188 633.783 32.2188 634.031C32.2188 634.28 32.3175 634.518 32.4933 634.694C32.6692 634.87 32.9076 634.969 33.1562 634.969C33.4049 634.969 33.6433 634.87 33.8192 634.694C33.995 634.518 34.0938 634.28 34.0938 634.031C34.0938 633.783 33.995 633.544 33.8192 633.368C33.6433 633.193 33.4049 633.094 33.1562 633.094ZM35.9688 634.031C35.8444 634.031 35.7252 634.081 35.6373 634.169C35.5494 634.256 35.5 634.376 35.5 634.5C35.5 634.624 35.5494 634.744 35.6373 634.831C35.7252 634.919 35.8444 634.969 35.9688 634.969C36.0931 634.969 36.2123 634.919 36.3002 634.831C36.3881 634.744 36.4375 634.624 36.4375 634.5C36.4375 634.376 36.3881 634.256 36.3002 634.169C36.2123 634.081 36.0931 634.031 35.9688 634.031ZM38.3125 634.5C38.1882 634.5 38.069 634.549 37.981 634.637C37.8931 634.725 37.8438 634.844 37.8438 634.969C37.8438 635.093 37.8931 635.212 37.981 635.3C38.069 635.388 38.1882 635.438 38.3125 635.438C38.4368 635.438 38.556 635.388 38.644 635.3C38.7319 635.212 38.7812 635.093 38.7812 634.969C38.7812 634.844 38.7319 634.725 38.644 634.637C38.556 634.549 38.4368 634.5 38.3125 634.5ZM33.8594 635.906C33.6729 635.906 33.4941 635.98 33.3622 636.112C33.2303 636.244 33.1562 636.423 33.1562 636.609C33.1562 636.796 33.2303 636.975 33.3622 637.107C33.4941 637.238 33.6729 637.312 33.8594 637.312C34.0459 637.312 34.2247 637.238 34.3566 637.107C34.4884 636.975 34.5625 636.796 34.5625 636.609C34.5625 636.423 34.4884 636.244 34.3566 636.112C34.2247 635.98 34.0459 635.906 33.8594 635.906ZM37.1406 636.375C36.9541 636.375 36.7753 636.449 36.6434 636.581C36.5116 636.713 36.4375 636.892 36.4375 637.078C36.4375 637.265 36.5116 637.443 36.6434 637.575C36.7753 637.707 36.9541 637.781 37.1406 637.781C37.3271 637.781 37.5059 637.707 37.6378 637.575C37.7697 637.443 37.8438 637.265 37.8438 637.078C37.8438 636.892 37.7697 636.713 37.6378 636.581C37.5059 636.449 37.3271 636.375 37.1406 636.375Z" fill="#DAD1BF"/>
<path d="M161.5 600.406C158.14 600.406 155.406 603.14 155.406 606.5C155.406 609.86 158.14 612.594 161.5 612.594C164.86 612.594 167.594 609.86 167.594 606.5C167.594 603.14 164.86 600.406 161.5 600.406ZM161.5 601.344C164.343 601.344 166.656 603.657 166.656 606.5C166.656 609.343 164.343 611.656 161.5 611.656C158.657 611.656 156.344 609.343 156.344 606.5C156.344 603.657 158.657 601.344 161.5 601.344ZM160.562 603.219C160.438 603.219 160.319 603.268 160.231 603.356C160.143 603.444 160.094 603.563 160.094 603.688C160.094 603.812 160.143 603.931 160.231 604.019C160.319 604.107 160.438 604.156 160.562 604.156C160.687 604.156 160.806 604.107 160.894 604.019C160.982 603.931 161.031 603.812 161.031 603.688C161.031 603.563 160.982 603.444 160.894 603.356C160.806 603.268 160.687 603.219 160.562 603.219ZM163.141 603.688C162.954 603.688 162.775 603.762 162.643 603.893C162.512 604.025 162.438 604.204 162.438 604.391C162.438 604.577 162.512 604.756 162.643 604.888C162.775 605.02 162.954 605.094 163.141 605.094C163.327 605.094 163.506 605.02 163.638 604.888C163.77 604.756 163.844 604.577 163.844 604.391C163.844 604.204 163.77 604.025 163.638 603.893C163.506 603.762 163.327 603.688 163.141 603.688ZM159.156 605.094C158.908 605.094 158.669 605.193 158.493 605.368C158.318 605.544 158.219 605.783 158.219 606.031C158.219 606.28 158.318 606.518 158.493 606.694C158.669 606.87 158.908 606.969 159.156 606.969C159.405 606.969 159.643 606.87 159.819 606.694C159.995 606.518 160.094 606.28 160.094 606.031C160.094 605.783 159.995 605.544 159.819 605.368C159.643 605.193 159.405 605.094 159.156 605.094ZM161.969 606.031C161.844 606.031 161.725 606.081 161.637 606.169C161.549 606.256 161.5 606.376 161.5 606.5C161.5 606.624 161.549 606.744 161.637 606.831C161.725 606.919 161.844 606.969 161.969 606.969C162.093 606.969 162.212 606.919 162.3 606.831C162.388 606.744 162.438 606.624 162.438 606.5C162.438 606.376 162.388 606.256 162.3 606.169C162.212 606.081 162.093 606.031 161.969 606.031ZM164.312 606.5C164.188 606.5 164.069 606.549 163.981 606.637C163.893 606.725 163.844 606.844 163.844 606.969C163.844 607.093 163.893 607.212 163.981 607.3C164.069 607.388 164.188 607.438 164.312 607.438C164.437 607.438 164.556 607.388 164.644 607.3C164.732 607.212 164.781 607.093 164.781 606.969C164.781 606.844 164.732 606.725 164.644 606.637C164.556 606.549 164.437 606.5 164.312 606.5ZM159.859 607.906C159.673 607.906 159.494 607.98 159.362 608.112C159.23 608.244 159.156 608.423 159.156 608.609C159.156 608.796 159.23 608.975 159.362 609.107C159.494 609.238 159.673 609.312 159.859 609.312C160.046 609.312 160.225 609.238 160.357 609.107C160.488 608.975 160.562 608.796 160.562 608.609C160.562 608.423 160.488 608.244 160.357 608.112C160.225 607.98 160.046 607.906 159.859 607.906ZM163.141 608.375C162.954 608.375 162.775 608.449 162.643 608.581C162.512 608.713 162.438 608.892 162.438 609.078C162.438 609.265 162.512 609.443 162.643 609.575C162.775 609.707 162.954 609.781 163.141 609.781C163.327 609.781 163.506 609.707 163.638 609.575C163.77 609.443 163.844 609.265 163.844 609.078C163.844 608.892 163.77 608.713 163.638 608.581C163.506 608.449 163.327 608.375 163.141 608.375Z" fill="#DAD1BF"/>
<path d="M284.5 533.406C281.14 533.406 278.406 536.14 278.406 539.5C278.406 542.86 281.14 545.594 284.5 545.594C287.86 545.594 290.594 542.86 290.594 539.5C290.594 536.14 287.86 533.406 284.5 533.406ZM284.5 534.344C287.343 534.344 289.656 536.657 289.656 539.5C289.656 542.343 287.343 544.656 284.5 544.656C281.657 544.656 279.344 542.343 279.344 539.5C279.344 536.657 281.657 534.344 284.5 534.344ZM283.562 536.219C283.438 536.219 283.319 536.268 283.231 536.356C283.143 536.444 283.094 536.563 283.094 536.688C283.094 536.812 283.143 536.931 283.231 537.019C283.319 537.107 283.438 537.156 283.562 537.156C283.687 537.156 283.806 537.107 283.894 537.019C283.982 536.931 284.031 536.812 284.031 536.688C284.031 536.563 283.982 536.444 283.894 536.356C283.806 536.268 283.687 536.219 283.562 536.219ZM286.141 536.688C285.954 536.688 285.775 536.762 285.643 536.893C285.512 537.025 285.438 537.204 285.438 537.391C285.438 537.577 285.512 537.756 285.643 537.888C285.775 538.02 285.954 538.094 286.141 538.094C286.327 538.094 286.506 538.02 286.638 537.888C286.77 537.756 286.844 537.577 286.844 537.391C286.844 537.204 286.77 537.025 286.638 536.893C286.506 536.762 286.327 536.688 286.141 536.688ZM282.156 538.094C281.908 538.094 281.669 538.193 281.493 538.368C281.318 538.544 281.219 538.783 281.219 539.031C281.219 539.28 281.318 539.518 281.493 539.694C281.669 539.87 281.908 539.969 282.156 539.969C282.405 539.969 282.643 539.87 282.819 539.694C282.995 539.518 283.094 539.28 283.094 539.031C283.094 538.783 282.995 538.544 282.819 538.368C282.643 538.193 282.405 538.094 282.156 538.094ZM284.969 539.031C284.844 539.031 284.725 539.081 284.637 539.169C284.549 539.256 284.5 539.376 284.5 539.5C284.5 539.624 284.549 539.744 284.637 539.831C284.725 539.919 284.844 539.969 284.969 539.969C285.093 539.969 285.212 539.919 285.3 539.831C285.388 539.744 285.438 539.624 285.438 539.5C285.438 539.376 285.388 539.256 285.3 539.169C285.212 539.081 285.093 539.031 284.969 539.031ZM287.312 539.5C287.188 539.5 287.069 539.549 286.981 539.637C286.893 539.725 286.844 539.844 286.844 539.969C286.844 540.093 286.893 540.212 286.981 540.3C287.069 540.388 287.188 540.438 287.312 540.438C287.437 540.438 287.556 540.388 287.644 540.3C287.732 540.212 287.781 540.093 287.781 539.969C287.781 539.844 287.732 539.725 287.644 539.637C287.556 539.549 287.437 539.5 287.312 539.5ZM282.859 540.906C282.673 540.906 282.494 540.98 282.362 541.112C282.23 541.244 282.156 541.423 282.156 541.609C282.156 541.796 282.23 541.975 282.362 542.107C282.494 542.238 282.673 542.312 282.859 542.312C283.046 542.312 283.225 542.238 283.357 542.107C283.488 541.975 283.562 541.796 283.562 541.609C283.562 541.423 283.488 541.244 283.357 541.112C283.225 540.98 283.046 540.906 282.859 540.906ZM286.141 541.375C285.954 541.375 285.775 541.449 285.643 541.581C285.512 541.713 285.438 541.892 285.438 542.078C285.438 542.265 285.512 542.443 285.643 542.575C285.775 542.707 285.954 542.781 286.141 542.781C286.327 542.781 286.506 542.707 286.638 542.575C286.77 542.443 286.844 542.265 286.844 542.078C286.844 541.892 286.77 541.713 286.638 541.581C286.506 541.449 286.327 541.375 286.141 541.375Z" fill="#DAD1BF"/>
<path d="M110.5 267.406C107.14 267.406 104.406 270.14 104.406 273.5C104.406 276.86 107.14 279.594 110.5 279.594C113.86 279.594 116.594 276.86 116.594 273.5C116.594 270.14 113.86 267.406 110.5 267.406ZM110.5 268.344C113.343 268.344 115.656 270.657 115.656 273.5C115.656 276.343 113.343 278.656 110.5 278.656C107.657 278.656 105.344 276.343 105.344 273.5C105.344 270.657 107.657 268.344 110.5 268.344ZM109.562 270.219C109.438 270.219 109.319 270.268 109.231 270.356C109.143 270.444 109.094 270.563 109.094 270.688C109.094 270.812 109.143 270.931 109.231 271.019C109.319 271.107 109.438 271.156 109.562 271.156C109.687 271.156 109.806 271.107 109.894 271.019C109.982 270.931 110.031 270.812 110.031 270.688C110.031 270.563 109.982 270.444 109.894 270.356C109.806 270.268 109.687 270.219 109.562 270.219ZM112.141 270.688C111.954 270.688 111.775 270.762 111.643 270.893C111.512 271.025 111.438 271.204 111.438 271.391C111.438 271.577 111.512 271.756 111.643 271.888C111.775 272.02 111.954 272.094 112.141 272.094C112.327 272.094 112.506 272.02 112.638 271.888C112.77 271.756 112.844 271.577 112.844 271.391C112.844 271.204 112.77 271.025 112.638 270.893C112.506 270.762 112.327 270.688 112.141 270.688ZM108.156 272.094C107.908 272.094 107.669 272.193 107.493 272.368C107.318 272.544 107.219 272.783 107.219 273.031C107.219 273.28 107.318 273.518 107.493 273.694C107.669 273.87 107.908 273.969 108.156 273.969C108.405 273.969 108.643 273.87 108.819 273.694C108.995 273.518 109.094 273.28 109.094 273.031C109.094 272.783 108.995 272.544 108.819 272.368C108.643 272.193 108.405 272.094 108.156 272.094ZM110.969 273.031C110.844 273.031 110.725 273.081 110.637 273.169C110.549 273.256 110.5 273.376 110.5 273.5C110.5 273.624 110.549 273.744 110.637 273.831C110.725 273.919 110.844 273.969 110.969 273.969C111.093 273.969 111.212 273.919 111.3 273.831C111.388 273.744 111.438 273.624 111.438 273.5C111.438 273.376 111.388 273.256 111.3 273.169C111.212 273.081 111.093 273.031 110.969 273.031ZM113.312 273.5C113.188 273.5 113.069 273.549 112.981 273.637C112.893 273.725 112.844 273.844 112.844 273.969C112.844 274.093 112.893 274.212 112.981 274.3C113.069 274.388 113.188 274.438 113.312 274.438C113.437 274.438 113.556 274.388 113.644 274.3C113.732 274.212 113.781 274.093 113.781 273.969C113.781 273.844 113.732 273.725 113.644 273.637C113.556 273.549 113.437 273.5 113.312 273.5ZM108.859 274.906C108.673 274.906 108.494 274.98 108.362 275.112C108.23 275.244 108.156 275.423 108.156 275.609C108.156 275.796 108.23 275.975 108.362 276.107C108.494 276.238 108.673 276.312 108.859 276.312C109.046 276.312 109.225 276.238 109.357 276.107C109.488 275.975 109.562 275.796 109.562 275.609C109.562 275.423 109.488 275.244 109.357 275.112C109.225 274.98 109.046 274.906 108.859 274.906ZM112.141 275.375C111.954 275.375 111.775 275.449 111.643 275.581C111.512 275.713 111.438 275.892 111.438 276.078C111.438 276.265 111.512 276.443 111.643 276.575C111.775 276.707 111.954 276.781 112.141 276.781C112.327 276.781 112.506 276.707 112.638 276.575C112.77 276.443 112.844 276.265 112.844 276.078C112.844 275.892 112.77 275.713 112.638 275.581C112.506 275.449 112.327 275.375 112.141 275.375Z" fill="#DAD1BF"/>
<path d="M116.5 367.406C113.14 367.406 110.406 370.14 110.406 373.5C110.406 376.86 113.14 379.594 116.5 379.594C119.86 379.594 122.594 376.86 122.594 373.5C122.594 370.14 119.86 367.406 116.5 367.406ZM116.5 368.344C119.343 368.344 121.656 370.657 121.656 373.5C121.656 376.343 119.343 378.656 116.5 378.656C113.657 378.656 111.344 376.343 111.344 373.5C111.344 370.657 113.657 368.344 116.5 368.344ZM115.562 370.219C115.438 370.219 115.319 370.268 115.231 370.356C115.143 370.444 115.094 370.563 115.094 370.688C115.094 370.812 115.143 370.931 115.231 371.019C115.319 371.107 115.438 371.156 115.562 371.156C115.687 371.156 115.806 371.107 115.894 371.019C115.982 370.931 116.031 370.812 116.031 370.688C116.031 370.563 115.982 370.444 115.894 370.356C115.806 370.268 115.687 370.219 115.562 370.219ZM118.141 370.688C117.954 370.688 117.775 370.762 117.643 370.893C117.512 371.025 117.438 371.204 117.438 371.391C117.438 371.577 117.512 371.756 117.643 371.888C117.775 372.02 117.954 372.094 118.141 372.094C118.327 372.094 118.506 372.02 118.638 371.888C118.77 371.756 118.844 371.577 118.844 371.391C118.844 371.204 118.77 371.025 118.638 370.893C118.506 370.762 118.327 370.688 118.141 370.688ZM114.156 372.094C113.908 372.094 113.669 372.193 113.493 372.368C113.318 372.544 113.219 372.783 113.219 373.031C113.219 373.28 113.318 373.518 113.493 373.694C113.669 373.87 113.908 373.969 114.156 373.969C114.405 373.969 114.643 373.87 114.819 373.694C114.995 373.518 115.094 373.28 115.094 373.031C115.094 372.783 114.995 372.544 114.819 372.368C114.643 372.193 114.405 372.094 114.156 372.094ZM116.969 373.031C116.844 373.031 116.725 373.081 116.637 373.169C116.549 373.256 116.5 373.376 116.5 373.5C116.5 373.624 116.549 373.744 116.637 373.831C116.725 373.919 116.844 373.969 116.969 373.969C117.093 373.969 117.212 373.919 117.3 373.831C117.388 373.744 117.438 373.624 117.438 373.5C117.438 373.376 117.388 373.256 117.3 373.169C117.212 373.081 117.093 373.031 116.969 373.031ZM119.312 373.5C119.188 373.5 119.069 373.549 118.981 373.637C118.893 373.725 118.844 373.844 118.844 373.969C118.844 374.093 118.893 374.212 118.981 374.3C119.069 374.388 119.188 374.438 119.312 374.438C119.437 374.438 119.556 374.388 119.644 374.3C119.732 374.212 119.781 374.093 119.781 373.969C119.781 373.844 119.732 373.725 119.644 373.637C119.556 373.549 119.437 373.5 119.312 373.5ZM114.859 374.906C114.673 374.906 114.494 374.98 114.362 375.112C114.23 375.244 114.156 375.423 114.156 375.609C114.156 375.796 114.23 375.975 114.362 376.107C114.494 376.238 114.673 376.312 114.859 376.312C115.046 376.312 115.225 376.238 115.357 376.107C115.488 375.975 115.562 375.796 115.562 375.609C115.562 375.423 115.488 375.244 115.357 375.112C115.225 374.98 115.046 374.906 114.859 374.906ZM118.141 375.375C117.954 375.375 117.775 375.449 117.643 375.581C117.512 375.713 117.438 375.892 117.438 376.078C117.438 376.265 117.512 376.443 117.643 376.575C117.775 376.707 117.954 376.781 118.141 376.781C118.327 376.781 118.506 376.707 118.638 376.575C118.77 376.443 118.844 376.265 118.844 376.078C118.844 375.892 118.77 375.713 118.638 375.581C118.506 375.449 118.327 375.375 118.141 375.375Z" fill="#DAD1BF"/>
<path d="M210.5 423.406C207.14 423.406 204.406 426.14 204.406 429.5C204.406 432.86 207.14 435.594 210.5 435.594C213.86 435.594 216.594 432.86 216.594 429.5C216.594 426.14 213.86 423.406 210.5 423.406ZM210.5 424.344C213.343 424.344 215.656 426.657 215.656 429.5C215.656 432.343 213.343 434.656 210.5 434.656C207.657 434.656 205.344 432.343 205.344 429.5C205.344 426.657 207.657 424.344 210.5 424.344ZM209.562 426.219C209.438 426.219 209.319 426.268 209.231 426.356C209.143 426.444 209.094 426.563 209.094 426.688C209.094 426.812 209.143 426.931 209.231 427.019C209.319 427.107 209.438 427.156 209.562 427.156C209.687 427.156 209.806 427.107 209.894 427.019C209.982 426.931 210.031 426.812 210.031 426.688C210.031 426.563 209.982 426.444 209.894 426.356C209.806 426.268 209.687 426.219 209.562 426.219ZM212.141 426.688C211.954 426.688 211.775 426.762 211.643 426.893C211.512 427.025 211.438 427.204 211.438 427.391C211.438 427.577 211.512 427.756 211.643 427.888C211.775 428.02 211.954 428.094 212.141 428.094C212.327 428.094 212.506 428.02 212.638 427.888C212.77 427.756 212.844 427.577 212.844 427.391C212.844 427.204 212.77 427.025 212.638 426.893C212.506 426.762 212.327 426.688 212.141 426.688ZM208.156 428.094C207.908 428.094 207.669 428.193 207.493 428.368C207.318 428.544 207.219 428.783 207.219 429.031C207.219 429.28 207.318 429.518 207.493 429.694C207.669 429.87 207.908 429.969 208.156 429.969C208.405 429.969 208.643 429.87 208.819 429.694C208.995 429.518 209.094 429.28 209.094 429.031C209.094 428.783 208.995 428.544 208.819 428.368C208.643 428.193 208.405 428.094 208.156 428.094ZM210.969 429.031C210.844 429.031 210.725 429.081 210.637 429.169C210.549 429.256 210.5 429.376 210.5 429.5C210.5 429.624 210.549 429.744 210.637 429.831C210.725 429.919 210.844 429.969 210.969 429.969C211.093 429.969 211.212 429.919 211.3 429.831C211.388 429.744 211.438 429.624 211.438 429.5C211.438 429.376 211.388 429.256 211.3 429.169C211.212 429.081 211.093 429.031 210.969 429.031ZM213.312 429.5C213.188 429.5 213.069 429.549 212.981 429.637C212.893 429.725 212.844 429.844 212.844 429.969C212.844 430.093 212.893 430.212 212.981 430.3C213.069 430.388 213.188 430.438 213.312 430.438C213.437 430.438 213.556 430.388 213.644 430.3C213.732 430.212 213.781 430.093 213.781 429.969C213.781 429.844 213.732 429.725 213.644 429.637C213.556 429.549 213.437 429.5 213.312 429.5ZM208.859 430.906C208.673 430.906 208.494 430.98 208.362 431.112C208.23 431.244 208.156 431.423 208.156 431.609C208.156 431.796 208.23 431.975 208.362 432.107C208.494 432.238 208.673 432.312 208.859 432.312C209.046 432.312 209.225 432.238 209.357 432.107C209.488 431.975 209.562 431.796 209.562 431.609C209.562 431.423 209.488 431.244 209.357 431.112C209.225 430.98 209.046 430.906 208.859 430.906ZM212.141 431.375C211.954 431.375 211.775 431.449 211.643 431.581C211.512 431.713 211.438 431.892 211.438 432.078C211.438 432.265 211.512 432.443 211.643 432.575C211.775 432.707 211.954 432.781 212.141 432.781C212.327 432.781 212.506 432.707 212.638 432.575C212.77 432.443 212.844 432.265 212.844 432.078C212.844 431.892 212.77 431.713 212.638 431.581C212.506 431.449 212.327 431.375 212.141 431.375Z" fill="#DAD1BF"/>
<path d="M243.5 180.406C240.14 180.406 237.406 183.14 237.406 186.5C237.406 189.86 240.14 192.594 243.5 192.594C246.86 192.594 249.594 189.86 249.594 186.5C249.594 183.14 246.86 180.406 243.5 180.406ZM243.5 181.344C246.343 181.344 248.656 183.657 248.656 186.5C248.656 189.343 246.343 191.656 243.5 191.656C240.657 191.656 238.344 189.343 238.344 186.5C238.344 183.657 240.657 181.344 243.5 181.344ZM242.562 183.219C242.438 183.219 242.319 183.268 242.231 183.356C242.143 183.444 242.094 183.563 242.094 183.688C242.094 183.812 242.143 183.931 242.231 184.019C242.319 184.107 242.438 184.156 242.562 184.156C242.687 184.156 242.806 184.107 242.894 184.019C242.982 183.931 243.031 183.812 243.031 183.688C243.031 183.563 242.982 183.444 242.894 183.356C242.806 183.268 242.687 183.219 242.562 183.219ZM245.141 183.688C244.954 183.688 244.775 183.762 244.643 183.893C244.512 184.025 244.438 184.204 244.438 184.391C244.438 184.577 244.512 184.756 244.643 184.888C244.775 185.02 244.954 185.094 245.141 185.094C245.327 185.094 245.506 185.02 245.638 184.888C245.77 184.756 245.844 184.577 245.844 184.391C245.844 184.204 245.77 184.025 245.638 183.893C245.506 183.762 245.327 183.688 245.141 183.688ZM241.156 185.094C240.908 185.094 240.669 185.193 240.493 185.368C240.318 185.544 240.219 185.783 240.219 186.031C240.219 186.28 240.318 186.518 240.493 186.694C240.669 186.87 240.908 186.969 241.156 186.969C241.405 186.969 241.643 186.87 241.819 186.694C241.995 186.518 242.094 186.28 242.094 186.031C242.094 185.783 241.995 185.544 241.819 185.368C241.643 185.193 241.405 185.094 241.156 185.094ZM243.969 186.031C243.844 186.031 243.725 186.081 243.637 186.169C243.549 186.256 243.5 186.376 243.5 186.5C243.5 186.624 243.549 186.744 243.637 186.831C243.725 186.919 243.844 186.969 243.969 186.969C244.093 186.969 244.212 186.919 244.3 186.831C244.388 186.744 244.438 186.624 244.438 186.5C244.438 186.376 244.388 186.256 244.3 186.169C244.212 186.081 244.093 186.031 243.969 186.031ZM246.312 186.5C246.188 186.5 246.069 186.549 245.981 186.637C245.893 186.725 245.844 186.844 245.844 186.969C245.844 187.093 245.893 187.212 245.981 187.3C246.069 187.388 246.188 187.438 246.312 187.438C246.437 187.438 246.556 187.388 246.644 187.3C246.732 187.212 246.781 187.093 246.781 186.969C246.781 186.844 246.732 186.725 246.644 186.637C246.556 186.549 246.437 186.5 246.312 186.5ZM241.859 187.906C241.673 187.906 241.494 187.98 241.362 188.112C241.23 188.244 241.156 188.423 241.156 188.609C241.156 188.796 241.23 188.975 241.362 189.107C241.494 189.238 241.673 189.312 241.859 189.312C242.046 189.312 242.225 189.238 242.357 189.107C242.488 188.975 242.562 188.796 242.562 188.609C242.562 188.423 242.488 188.244 242.357 188.112C242.225 187.98 242.046 187.906 241.859 187.906ZM245.141 188.375C244.954 188.375 244.775 188.449 244.643 188.581C244.512 188.713 244.438 188.892 244.438 189.078C244.438 189.265 244.512 189.443 244.643 189.575C244.775 189.707 244.954 189.781 245.141 189.781C245.327 189.781 245.506 189.707 245.638 189.575C245.77 189.443 245.844 189.265 245.844 189.078C245.844 188.892 245.77 188.713 245.638 188.581C245.506 188.449 245.327 188.375 245.141 188.375Z" fill="#DAD1BF"/>
<path d="M102.5 532.406C99.14 532.406 96.4062 535.14 96.4062 538.5C96.4062 541.86 99.14 544.594 102.5 544.594C105.86 544.594 108.594 541.86 108.594 538.5C108.594 535.14 105.86 532.406 102.5 532.406ZM102.5 533.344C105.343 533.344 107.656 535.657 107.656 538.5C107.656 541.343 105.343 543.656 102.5 543.656C99.657 543.656 97.3438 541.343 97.3438 538.5C97.3438 535.657 99.657 533.344 102.5 533.344ZM101.562 535.219C101.438 535.219 101.319 535.268 101.231 535.356C101.143 535.444 101.094 535.563 101.094 535.688C101.094 535.812 101.143 535.931 101.231 536.019C101.319 536.107 101.438 536.156 101.562 536.156C101.687 536.156 101.806 536.107 101.894 536.019C101.982 535.931 102.031 535.812 102.031 535.688C102.031 535.563 101.982 535.444 101.894 535.356C101.806 535.268 101.687 535.219 101.562 535.219ZM104.141 535.688C103.954 535.688 103.775 535.762 103.643 535.893C103.512 536.025 103.438 536.204 103.438 536.391C103.438 536.577 103.512 536.756 103.643 536.888C103.775 537.02 103.954 537.094 104.141 537.094C104.327 537.094 104.506 537.02 104.638 536.888C104.77 536.756 104.844 536.577 104.844 536.391C104.844 536.204 104.77 536.025 104.638 535.893C104.506 535.762 104.327 535.688 104.141 535.688ZM100.156 537.094C99.9076 537.094 99.6692 537.193 99.4933 537.368C99.3175 537.544 99.2188 537.783 99.2188 538.031C99.2188 538.28 99.3175 538.518 99.4933 538.694C99.6692 538.87 99.9076 538.969 100.156 538.969C100.405 538.969 100.643 538.87 100.819 538.694C100.995 538.518 101.094 538.28 101.094 538.031C101.094 537.783 100.995 537.544 100.819 537.368C100.643 537.193 100.405 537.094 100.156 537.094ZM102.969 538.031C102.844 538.031 102.725 538.081 102.637 538.169C102.549 538.256 102.5 538.376 102.5 538.5C102.5 538.624 102.549 538.744 102.637 538.831C102.725 538.919 102.844 538.969 102.969 538.969C103.093 538.969 103.212 538.919 103.3 538.831C103.388 538.744 103.438 538.624 103.438 538.5C103.438 538.376 103.388 538.256 103.3 538.169C103.212 538.081 103.093 538.031 102.969 538.031ZM105.312 538.5C105.188 538.5 105.069 538.549 104.981 538.637C104.893 538.725 104.844 538.844 104.844 538.969C104.844 539.093 104.893 539.212 104.981 539.3C105.069 539.388 105.188 539.438 105.312 539.438C105.437 539.438 105.556 539.388 105.644 539.3C105.732 539.212 105.781 539.093 105.781 538.969C105.781 538.844 105.732 538.725 105.644 538.637C105.556 538.549 105.437 538.5 105.312 538.5ZM100.859 539.906C100.673 539.906 100.494 539.98 100.362 540.112C100.23 540.244 100.156 540.423 100.156 540.609C100.156 540.796 100.23 540.975 100.362 541.107C100.494 541.238 100.673 541.312 100.859 541.312C101.046 541.312 101.225 541.238 101.357 541.107C101.488 540.975 101.562 540.796 101.562 540.609C101.562 540.423 101.488 540.244 101.357 540.112C101.225 539.98 101.046 539.906 100.859 539.906ZM104.141 540.375C103.954 540.375 103.775 540.449 103.643 540.581C103.512 540.713 103.438 540.892 103.438 541.078C103.438 541.265 103.512 541.443 103.643 541.575C103.775 541.707 103.954 541.781 104.141 541.781C104.327 541.781 104.506 541.707 104.638 541.575C104.77 541.443 104.844 541.265 104.844 541.078C104.844 540.892 104.77 540.713 104.638 540.581C104.506 540.449 104.327 540.375 104.141 540.375Z" fill="#DAD1BF"/>
<path d="M311.5 1.40625C308.14 1.40625 305.406 4.14 305.406 7.5C305.406 10.86 308.14 13.5938 311.5 13.5938C314.86 13.5938 317.594 10.86 317.594 7.5C317.594 4.14 314.86 1.40625 311.5 1.40625ZM311.5 2.34375C314.343 2.34375 316.656 4.65703 316.656 7.5C316.656 10.343 314.343 12.6562 311.5 12.6562C308.657 12.6562 306.344 10.343 306.344 7.5C306.344 4.65703 308.657 2.34375 311.5 2.34375ZM310.562 4.21875C310.438 4.21875 310.319 4.26814 310.231 4.35604C310.143 4.44395 310.094 4.56318 310.094 4.6875C310.094 4.81182 310.143 4.93105 310.231 5.01896C310.319 5.10686 310.438 5.15625 310.562 5.15625C310.687 5.15625 310.806 5.10686 310.894 5.01896C310.982 4.93105 311.031 4.81182 311.031 4.6875C311.031 4.56318 310.982 4.44395 310.894 4.35604C310.806 4.26814 310.687 4.21875 310.562 4.21875ZM313.141 4.6875C312.954 4.6875 312.775 4.76158 312.643 4.89344C312.512 5.0253 312.438 5.20414 312.438 5.39062C312.438 5.57711 312.512 5.75595 312.643 5.88781C312.775 6.01967 312.954 6.09375 313.141 6.09375C313.327 6.09375 313.506 6.01967 313.638 5.88781C313.77 5.75595 313.844 5.57711 313.844 5.39062C313.844 5.20414 313.77 5.0253 313.638 4.89344C313.506 4.76158 313.327 4.6875 313.141 4.6875ZM309.156 6.09375C308.908 6.09375 308.669 6.19252 308.493 6.36834C308.318 6.54415 308.219 6.78261 308.219 7.03125C308.219 7.27989 308.318 7.51835 308.493 7.69416C308.669 7.86998 308.908 7.96875 309.156 7.96875C309.405 7.96875 309.643 7.86998 309.819 7.69416C309.995 7.51835 310.094 7.27989 310.094 7.03125C310.094 6.78261 309.995 6.54415 309.819 6.36834C309.643 6.19252 309.405 6.09375 309.156 6.09375ZM311.969 7.03125C311.844 7.03125 311.725 7.08064 311.637 7.16854C311.549 7.25645 311.5 7.37568 311.5 7.5C311.5 7.62432 311.549 7.74355 311.637 7.83146C311.725 7.91936 311.844 7.96875 311.969 7.96875C312.093 7.96875 312.212 7.91936 312.3 7.83146C312.388 7.74355 312.438 7.62432 312.438 7.5C312.438 7.37568 312.388 7.25645 312.3 7.16854C312.212 7.08064 312.093 7.03125 311.969 7.03125ZM314.312 7.5C314.188 7.5 314.069 7.54939 313.981 7.63729C313.893 7.7252 313.844 7.84443 313.844 7.96875C313.844 8.09307 313.893 8.2123 313.981 8.30021C314.069 8.38811 314.188 8.4375 314.312 8.4375C314.437 8.4375 314.556 8.38811 314.644 8.30021C314.732 8.2123 314.781 8.09307 314.781 7.96875C314.781 7.84443 314.732 7.7252 314.644 7.63729C314.556 7.54939 314.437 7.5 314.312 7.5ZM309.859 8.90625C309.673 8.90625 309.494 8.98033 309.362 9.11219C309.23 9.24405 309.156 9.42289 309.156 9.60938C309.156 9.79586 309.23 9.9747 309.362 10.1066C309.494 10.2384 309.673 10.3125 309.859 10.3125C310.046 10.3125 310.225 10.2384 310.357 10.1066C310.488 9.9747 310.562 9.79586 310.562 9.60938C310.562 9.42289 310.488 9.24405 310.357 9.11219C310.225 8.98033 310.046 8.90625 309.859 8.90625ZM313.141 9.375C312.954 9.375 312.775 9.44908 312.643 9.58094C312.512 9.7128 312.438 9.89164 312.438 10.0781C312.438 10.2646 312.512 10.4434 312.643 10.5753C312.775 10.7072 312.954 10.7812 313.141 10.7812C313.327 10.7812 313.506 10.7072 313.638 10.5753C313.77 10.4434 313.844 10.2646 313.844 10.0781C313.844 9.89164 313.77 9.7128 313.638 9.58094C313.506 9.44908 313.327 9.375 313.141 9.375Z" fill="#DAD1BF"/>
<path d="M335.5 342.406C332.14 342.406 329.406 345.14 329.406 348.5C329.406 351.86 332.14 354.594 335.5 354.594C338.86 354.594 341.594 351.86 341.594 348.5C341.594 345.14 338.86 342.406 335.5 342.406ZM335.5 343.344C338.343 343.344 340.656 345.657 340.656 348.5C340.656 351.343 338.343 353.656 335.5 353.656C332.657 353.656 330.344 351.343 330.344 348.5C330.344 345.657 332.657 343.344 335.5 343.344ZM334.562 345.219C334.438 345.219 334.319 345.268 334.231 345.356C334.143 345.444 334.094 345.563 334.094 345.688C334.094 345.812 334.143 345.931 334.231 346.019C334.319 346.107 334.438 346.156 334.562 346.156C334.687 346.156 334.806 346.107 334.894 346.019C334.982 345.931 335.031 345.812 335.031 345.688C335.031 345.563 334.982 345.444 334.894 345.356C334.806 345.268 334.687 345.219 334.562 345.219ZM337.141 345.688C336.954 345.688 336.775 345.762 336.643 345.893C336.512 346.025 336.438 346.204 336.438 346.391C336.438 346.577 336.512 346.756 336.643 346.888C336.775 347.02 336.954 347.094 337.141 347.094C337.327 347.094 337.506 347.02 337.638 346.888C337.77 346.756 337.844 346.577 337.844 346.391C337.844 346.204 337.77 346.025 337.638 345.893C337.506 345.762 337.327 345.688 337.141 345.688ZM333.156 347.094C332.908 347.094 332.669 347.193 332.493 347.368C332.318 347.544 332.219 347.783 332.219 348.031C332.219 348.28 332.318 348.518 332.493 348.694C332.669 348.87 332.908 348.969 333.156 348.969C333.405 348.969 333.643 348.87 333.819 348.694C333.995 348.518 334.094 348.28 334.094 348.031C334.094 347.783 333.995 347.544 333.819 347.368C333.643 347.193 333.405 347.094 333.156 347.094ZM335.969 348.031C335.844 348.031 335.725 348.081 335.637 348.169C335.549 348.256 335.5 348.376 335.5 348.5C335.5 348.624 335.549 348.744 335.637 348.831C335.725 348.919 335.844 348.969 335.969 348.969C336.093 348.969 336.212 348.919 336.3 348.831C336.388 348.744 336.438 348.624 336.438 348.5C336.438 348.376 336.388 348.256 336.3 348.169C336.212 348.081 336.093 348.031 335.969 348.031ZM338.312 348.5C338.188 348.5 338.069 348.549 337.981 348.637C337.893 348.725 337.844 348.844 337.844 348.969C337.844 349.093 337.893 349.212 337.981 349.3C338.069 349.388 338.188 349.438 338.312 349.438C338.437 349.438 338.556 349.388 338.644 349.3C338.732 349.212 338.781 349.093 338.781 348.969C338.781 348.844 338.732 348.725 338.644 348.637C338.556 348.549 338.437 348.5 338.312 348.5ZM333.859 349.906C333.673 349.906 333.494 349.98 333.362 350.112C333.23 350.244 333.156 350.423 333.156 350.609C333.156 350.796 333.23 350.975 333.362 351.107C333.494 351.238 333.673 351.312 333.859 351.312C334.046 351.312 334.225 351.238 334.357 351.107C334.488 350.975 334.562 350.796 334.562 350.609C334.562 350.423 334.488 350.244 334.357 350.112C334.225 349.98 334.046 349.906 333.859 349.906ZM337.141 350.375C336.954 350.375 336.775 350.449 336.643 350.581C336.512 350.713 336.438 350.892 336.438 351.078C336.438 351.265 336.512 351.443 336.643 351.575C336.775 351.707 336.954 351.781 337.141 351.781C337.327 351.781 337.506 351.707 337.638 351.575C337.77 351.443 337.844 351.265 337.844 351.078C337.844 350.892 337.77 350.713 337.638 350.581C337.506 350.449 337.327 350.375 337.141 350.375Z" fill="#DAD1BF"/>
<path d="M7.5 277.406C4.14 277.406 1.40625 280.14 1.40625 283.5C1.40625 286.86 4.14 289.594 7.5 289.594C10.86 289.594 13.5938 286.86 13.5938 283.5C13.5938 280.14 10.86 277.406 7.5 277.406ZM7.5 278.344C10.343 278.344 12.6562 280.657 12.6562 283.5C12.6562 286.343 10.343 288.656 7.5 288.656C4.65703 288.656 2.34375 286.343 2.34375 283.5C2.34375 280.657 4.65703 278.344 7.5 278.344ZM6.5625 280.219C6.43818 280.219 6.31895 280.268 6.23104 280.356C6.14314 280.444 6.09375 280.563 6.09375 280.688C6.09375 280.812 6.14314 280.931 6.23104 281.019C6.31895 281.107 6.43818 281.156 6.5625 281.156C6.68682 281.156 6.80605 281.107 6.89396 281.019C6.98186 280.931 7.03125 280.812 7.03125 280.688C7.03125 280.563 6.98186 280.444 6.89396 280.356C6.80605 280.268 6.68682 280.219 6.5625 280.219ZM9.14062 280.688C8.95414 280.688 8.7753 280.762 8.64344 280.893C8.51158 281.025 8.4375 281.204 8.4375 281.391C8.4375 281.577 8.51158 281.756 8.64344 281.888C8.7753 282.02 8.95414 282.094 9.14062 282.094C9.32711 282.094 9.50595 282.02 9.63781 281.888C9.76967 281.756 9.84375 281.577 9.84375 281.391C9.84375 281.204 9.76967 281.025 9.63781 280.893C9.50595 280.762 9.32711 280.688 9.14062 280.688ZM5.15625 282.094C4.90761 282.094 4.66915 282.193 4.49334 282.368C4.31752 282.544 4.21875 282.783 4.21875 283.031C4.21875 283.28 4.31752 283.518 4.49334 283.694C4.66915 283.87 4.90761 283.969 5.15625 283.969C5.40489 283.969 5.64335 283.87 5.81916 283.694C5.99498 283.518 6.09375 283.28 6.09375 283.031C6.09375 282.783 5.99498 282.544 5.81916 282.368C5.64335 282.193 5.40489 282.094 5.15625 282.094ZM7.96875 283.031C7.84443 283.031 7.7252 283.081 7.63729 283.169C7.54939 283.256 7.5 283.376 7.5 283.5C7.5 283.624 7.54939 283.744 7.63729 283.831C7.7252 283.919 7.84443 283.969 7.96875 283.969C8.09307 283.969 8.2123 283.919 8.30021 283.831C8.38811 283.744 8.4375 283.624 8.4375 283.5C8.4375 283.376 8.38811 283.256 8.30021 283.169C8.2123 283.081 8.09307 283.031 7.96875 283.031ZM10.3125 283.5C10.1882 283.5 10.069 283.549 9.98104 283.637C9.89314 283.725 9.84375 283.844 9.84375 283.969C9.84375 284.093 9.89314 284.212 9.98104 284.3C10.069 284.388 10.1882 284.438 10.3125 284.438C10.4368 284.438 10.556 284.388 10.644 284.3C10.7319 284.212 10.7812 284.093 10.7812 283.969C10.7812 283.844 10.7319 283.725 10.644 283.637C10.556 283.549 10.4368 283.5 10.3125 283.5ZM5.85938 284.906C5.67289 284.906 5.49405 284.98 5.36219 285.112C5.23033 285.244 5.15625 285.423 5.15625 285.609C5.15625 285.796 5.23033 285.975 5.36219 286.107C5.49405 286.238 5.67289 286.312 5.85938 286.312C6.04586 286.312 6.2247 286.238 6.35656 286.107C6.48842 285.975 6.5625 285.796 6.5625 285.609C6.5625 285.423 6.48842 285.244 6.35656 285.112C6.2247 284.98 6.04586 284.906 5.85938 284.906ZM9.14062 285.375C8.95414 285.375 8.7753 285.449 8.64344 285.581C8.51158 285.713 8.4375 285.892 8.4375 286.078C8.4375 286.265 8.51158 286.443 8.64344 286.575C8.7753 286.707 8.95414 286.781 9.14062 286.781C9.32711 286.781 9.50595 286.707 9.63781 286.575C9.76967 286.443 9.84375 286.265 9.84375 286.078C9.84375 285.892 9.76967 285.713 9.63781 285.581C9.50595 285.449 9.32711 285.375 9.14062 285.375Z" fill="#DAD1BF"/>
<path d="M48.5 451.406C45.14 451.406 42.4062 454.14 42.4062 457.5C42.4062 460.86 45.14 463.594 48.5 463.594C51.86 463.594 54.5938 460.86 54.5938 457.5C54.5938 454.14 51.86 451.406 48.5 451.406ZM48.5 452.344C51.343 452.344 53.6562 454.657 53.6562 457.5C53.6562 460.343 51.343 462.656 48.5 462.656C45.657 462.656 43.3438 460.343 43.3438 457.5C43.3438 454.657 45.657 452.344 48.5 452.344ZM47.5625 454.219C47.4382 454.219 47.319 454.268 47.231 454.356C47.1431 454.444 47.0938 454.563 47.0938 454.688C47.0938 454.812 47.1431 454.931 47.231 455.019C47.319 455.107 47.4382 455.156 47.5625 455.156C47.6868 455.156 47.806 455.107 47.894 455.019C47.9819 454.931 48.0312 454.812 48.0312 454.688C48.0312 454.563 47.9819 454.444 47.894 454.356C47.806 454.268 47.6868 454.219 47.5625 454.219ZM50.1406 454.688C49.9541 454.688 49.7753 454.762 49.6434 454.893C49.5116 455.025 49.4375 455.204 49.4375 455.391C49.4375 455.577 49.5116 455.756 49.6434 455.888C49.7753 456.02 49.9541 456.094 50.1406 456.094C50.3271 456.094 50.5059 456.02 50.6378 455.888C50.7697 455.756 50.8438 455.577 50.8438 455.391C50.8438 455.204 50.7697 455.025 50.6378 454.893C50.5059 454.762 50.3271 454.688 50.1406 454.688ZM46.1562 456.094C45.9076 456.094 45.6692 456.193 45.4933 456.368C45.3175 456.544 45.2188 456.783 45.2188 457.031C45.2188 457.28 45.3175 457.518 45.4933 457.694C45.6692 457.87 45.9076 457.969 46.1562 457.969C46.4049 457.969 46.6433 457.87 46.8192 457.694C46.995 457.518 47.0938 457.28 47.0938 457.031C47.0938 456.783 46.995 456.544 46.8192 456.368C46.6433 456.193 46.4049 456.094 46.1562 456.094ZM48.9688 457.031C48.8444 457.031 48.7252 457.081 48.6373 457.169C48.5494 457.256 48.5 457.376 48.5 457.5C48.5 457.624 48.5494 457.744 48.6373 457.831C48.7252 457.919 48.8444 457.969 48.9688 457.969C49.0931 457.969 49.2123 457.919 49.3002 457.831C49.3881 457.744 49.4375 457.624 49.4375 457.5C49.4375 457.376 49.3881 457.256 49.3002 457.169C49.2123 457.081 49.0931 457.031 48.9688 457.031ZM51.3125 457.5C51.1882 457.5 51.069 457.549 50.981 457.637C50.8931 457.725 50.8438 457.844 50.8438 457.969C50.8438 458.093 50.8931 458.212 50.981 458.3C51.069 458.388 51.1882 458.438 51.3125 458.438C51.4368 458.438 51.556 458.388 51.644 458.3C51.7319 458.212 51.7812 458.093 51.7812 457.969C51.7812 457.844 51.7319 457.725 51.644 457.637C51.556 457.549 51.4368 457.5 51.3125 457.5ZM46.8594 458.906C46.6729 458.906 46.4941 458.98 46.3622 459.112C46.2303 459.244 46.1562 459.423 46.1562 459.609C46.1562 459.796 46.2303 459.975 46.3622 460.107C46.4941 460.238 46.6729 460.312 46.8594 460.312C47.0459 460.312 47.2247 460.238 47.3566 460.107C47.4884 459.975 47.5625 459.796 47.5625 459.609C47.5625 459.423 47.4884 459.244 47.3566 459.112C47.2247 458.98 47.0459 458.906 46.8594 458.906ZM50.1406 459.375C49.9541 459.375 49.7753 459.449 49.6434 459.581C49.5116 459.713 49.4375 459.892 49.4375 460.078C49.4375 460.265 49.5116 460.443 49.6434 460.575C49.7753 460.707 49.9541 460.781 50.1406 460.781C50.3271 460.781 50.5059 460.707 50.6378 460.575C50.7697 460.443 50.8438 460.265 50.8438 460.078C50.8438 459.892 50.7697 459.713 50.6378 459.581C50.5059 459.449 50.3271 459.375 50.1406 459.375Z" fill="#DAD1BF"/>
<path d="M291.5 238.406C288.14 238.406 285.406 241.14 285.406 244.5C285.406 247.86 288.14 250.594 291.5 250.594C294.86 250.594 297.594 247.86 297.594 244.5C297.594 241.14 294.86 238.406 291.5 238.406ZM291.5 239.344C294.343 239.344 296.656 241.657 296.656 244.5C296.656 247.343 294.343 249.656 291.5 249.656C288.657 249.656 286.344 247.343 286.344 244.5C286.344 241.657 288.657 239.344 291.5 239.344ZM290.562 241.219C290.438 241.219 290.319 241.268 290.231 241.356C290.143 241.444 290.094 241.563 290.094 241.688C290.094 241.812 290.143 241.931 290.231 242.019C290.319 242.107 290.438 242.156 290.562 242.156C290.687 242.156 290.806 242.107 290.894 242.019C290.982 241.931 291.031 241.812 291.031 241.688C291.031 241.563 290.982 241.444 290.894 241.356C290.806 241.268 290.687 241.219 290.562 241.219ZM293.141 241.688C292.954 241.688 292.775 241.762 292.643 241.893C292.512 242.025 292.438 242.204 292.438 242.391C292.438 242.577 292.512 242.756 292.643 242.888C292.775 243.02 292.954 243.094 293.141 243.094C293.327 243.094 293.506 243.02 293.638 242.888C293.77 242.756 293.844 242.577 293.844 242.391C293.844 242.204 293.77 242.025 293.638 241.893C293.506 241.762 293.327 241.688 293.141 241.688ZM289.156 243.094C288.908 243.094 288.669 243.193 288.493 243.368C288.318 243.544 288.219 243.783 288.219 244.031C288.219 244.28 288.318 244.518 288.493 244.694C288.669 244.87 288.908 244.969 289.156 244.969C289.405 244.969 289.643 244.87 289.819 244.694C289.995 244.518 290.094 244.28 290.094 244.031C290.094 243.783 289.995 243.544 289.819 243.368C289.643 243.193 289.405 243.094 289.156 243.094ZM291.969 244.031C291.844 244.031 291.725 244.081 291.637 244.169C291.549 244.256 291.5 244.376 291.5 244.5C291.5 244.624 291.549 244.744 291.637 244.831C291.725 244.919 291.844 244.969 291.969 244.969C292.093 244.969 292.212 244.919 292.3 244.831C292.388 244.744 292.438 244.624 292.438 244.5C292.438 244.376 292.388 244.256 292.3 244.169C292.212 244.081 292.093 244.031 291.969 244.031ZM294.312 244.5C294.188 244.5 294.069 244.549 293.981 244.637C293.893 244.725 293.844 244.844 293.844 244.969C293.844 245.093 293.893 245.212 293.981 245.3C294.069 245.388 294.188 245.438 294.312 245.438C294.437 245.438 294.556 245.388 294.644 245.3C294.732 245.212 294.781 245.093 294.781 244.969C294.781 244.844 294.732 244.725 294.644 244.637C294.556 244.549 294.437 244.5 294.312 244.5ZM289.859 245.906C289.673 245.906 289.494 245.98 289.362 246.112C289.23 246.244 289.156 246.423 289.156 246.609C289.156 246.796 289.23 246.975 289.362 247.107C289.494 247.238 289.673 247.312 289.859 247.312C290.046 247.312 290.225 247.238 290.357 247.107C290.488 246.975 290.562 246.796 290.562 246.609C290.562 246.423 290.488 246.244 290.357 246.112C290.225 245.98 290.046 245.906 289.859 245.906ZM293.141 246.375C292.954 246.375 292.775 246.449 292.643 246.581C292.512 246.713 292.438 246.892 292.438 247.078C292.438 247.265 292.512 247.443 292.643 247.575C292.775 247.707 292.954 247.781 293.141 247.781C293.327 247.781 293.506 247.707 293.638 247.575C293.77 247.443 293.844 247.265 293.844 247.078C293.844 246.892 293.77 246.713 293.638 246.581C293.506 246.449 293.327 246.375 293.141 246.375Z" fill="#DAD1BF"/>
<path d="M267.5 86.4062C264.14 86.4062 261.406 89.14 261.406 92.5C261.406 95.86 264.14 98.5938 267.5 98.5938C270.86 98.5938 273.594 95.86 273.594 92.5C273.594 89.14 270.86 86.4062 267.5 86.4062ZM267.5 87.3438C270.343 87.3438 272.656 89.657 272.656 92.5C272.656 95.343 270.343 97.6562 267.5 97.6562C264.657 97.6562 262.344 95.343 262.344 92.5C262.344 89.657 264.657 87.3438 267.5 87.3438ZM266.562 89.2188C266.438 89.2188 266.319 89.2681 266.231 89.356C266.143 89.444 266.094 89.5632 266.094 89.6875C266.094 89.8118 266.143 89.931 266.231 90.019C266.319 90.1069 266.438 90.1562 266.562 90.1562C266.687 90.1562 266.806 90.1069 266.894 90.019C266.982 89.931 267.031 89.8118 267.031 89.6875C267.031 89.5632 266.982 89.444 266.894 89.356C266.806 89.2681 266.687 89.2188 266.562 89.2188ZM269.141 89.6875C268.954 89.6875 268.775 89.7616 268.643 89.8934C268.512 90.0253 268.438 90.2041 268.438 90.3906C268.438 90.5771 268.512 90.7559 268.643 90.8878C268.775 91.0197 268.954 91.0938 269.141 91.0938C269.327 91.0938 269.506 91.0197 269.638 90.8878C269.77 90.7559 269.844 90.5771 269.844 90.3906C269.844 90.2041 269.77 90.0253 269.638 89.8934C269.506 89.7616 269.327 89.6875 269.141 89.6875ZM265.156 91.0938C264.908 91.0938 264.669 91.1925 264.493 91.3683C264.318 91.5442 264.219 91.7826 264.219 92.0312C264.219 92.2799 264.318 92.5183 264.493 92.6942C264.669 92.87 264.908 92.9688 265.156 92.9688C265.405 92.9688 265.643 92.87 265.819 92.6942C265.995 92.5183 266.094 92.2799 266.094 92.0312C266.094 91.7826 265.995 91.5442 265.819 91.3683C265.643 91.1925 265.405 91.0938 265.156 91.0938ZM267.969 92.0312C267.844 92.0312 267.725 92.0806 267.637 92.1685C267.549 92.2565 267.5 92.3757 267.5 92.5C267.5 92.6243 267.549 92.7435 267.637 92.8315C267.725 92.9194 267.844 92.9688 267.969 92.9688C268.093 92.9688 268.212 92.9194 268.3 92.8315C268.388 92.7435 268.438 92.6243 268.438 92.5C268.438 92.3757 268.388 92.2565 268.3 92.1685C268.212 92.0806 268.093 92.0312 267.969 92.0312ZM270.312 92.5C270.188 92.5 270.069 92.5494 269.981 92.6373C269.893 92.7252 269.844 92.8444 269.844 92.9688C269.844 93.0931 269.893 93.2123 269.981 93.3002C270.069 93.3881 270.188 93.4375 270.312 93.4375C270.437 93.4375 270.556 93.3881 270.644 93.3002C270.732 93.2123 270.781 93.0931 270.781 92.9688C270.781 92.8444 270.732 92.7252 270.644 92.6373C270.556 92.5494 270.437 92.5 270.312 92.5ZM265.859 93.9062C265.673 93.9062 265.494 93.9803 265.362 94.1122C265.23 94.2441 265.156 94.4229 265.156 94.6094C265.156 94.7959 265.23 94.9747 265.362 95.1066C265.494 95.2384 265.673 95.3125 265.859 95.3125C266.046 95.3125 266.225 95.2384 266.357 95.1066C266.488 94.9747 266.562 94.7959 266.562 94.6094C266.562 94.4229 266.488 94.2441 266.357 94.1122C266.225 93.9803 266.046 93.9062 265.859 93.9062ZM269.141 94.375C268.954 94.375 268.775 94.4491 268.643 94.5809C268.512 94.7128 268.438 94.8916 268.438 95.0781C268.438 95.2646 268.512 95.4434 268.643 95.5753C268.775 95.7072 268.954 95.7812 269.141 95.7812C269.327 95.7812 269.506 95.7072 269.638 95.5753C269.77 95.4434 269.844 95.2646 269.844 95.0781C269.844 94.8916 269.77 94.7128 269.638 94.5809C269.506 94.4491 269.327 94.375 269.141 94.375Z" fill="#DAD1BF"/>
<path d="M64.5 35.4062C61.14 35.4062 58.4062 38.14 58.4062 41.5C58.4062 44.86 61.14 47.5938 64.5 47.5938C67.86 47.5938 70.5938 44.86 70.5938 41.5C70.5938 38.14 67.86 35.4062 64.5 35.4062ZM64.5 36.3438C67.343 36.3438 69.6562 38.657 69.6562 41.5C69.6562 44.343 67.343 46.6562 64.5 46.6562C61.657 46.6562 59.3438 44.343 59.3438 41.5C59.3438 38.657 61.657 36.3438 64.5 36.3438ZM63.5625 38.2188C63.4382 38.2188 63.319 38.2681 63.231 38.356C63.1431 38.444 63.0938 38.5632 63.0938 38.6875C63.0938 38.8118 63.1431 38.931 63.231 39.019C63.319 39.1069 63.4382 39.1562 63.5625 39.1562C63.6868 39.1562 63.806 39.1069 63.894 39.019C63.9819 38.931 64.0312 38.8118 64.0312 38.6875C64.0312 38.5632 63.9819 38.444 63.894 38.356C63.806 38.2681 63.6868 38.2188 63.5625 38.2188ZM66.1406 38.6875C65.9541 38.6875 65.7753 38.7616 65.6434 38.8934C65.5116 39.0253 65.4375 39.2041 65.4375 39.3906C65.4375 39.5771 65.5116 39.7559 65.6434 39.8878C65.7753 40.0197 65.9541 40.0938 66.1406 40.0938C66.3271 40.0938 66.5059 40.0197 66.6378 39.8878C66.7697 39.7559 66.8438 39.5771 66.8438 39.3906C66.8438 39.2041 66.7697 39.0253 66.6378 38.8934C66.5059 38.7616 66.3271 38.6875 66.1406 38.6875ZM62.1562 40.0938C61.9076 40.0938 61.6692 40.1925 61.4933 40.3683C61.3175 40.5442 61.2188 40.7826 61.2188 41.0312C61.2188 41.2799 61.3175 41.5183 61.4933 41.6942C61.6692 41.87 61.9076 41.9688 62.1562 41.9688C62.4049 41.9688 62.6433 41.87 62.8192 41.6942C62.995 41.5183 63.0938 41.2799 63.0938 41.0312C63.0938 40.7826 62.995 40.5442 62.8192 40.3683C62.6433 40.1925 62.4049 40.0938 62.1562 40.0938ZM64.9688 41.0312C64.8444 41.0312 64.7252 41.0806 64.6373 41.1685C64.5494 41.2565 64.5 41.3757 64.5 41.5C64.5 41.6243 64.5494 41.7435 64.6373 41.8315C64.7252 41.9194 64.8444 41.9688 64.9688 41.9688C65.0931 41.9688 65.2123 41.9194 65.3002 41.8315C65.3881 41.7435 65.4375 41.6243 65.4375 41.5C65.4375 41.3757 65.3881 41.2565 65.3002 41.1685C65.2123 41.0806 65.0931 41.0312 64.9688 41.0312ZM67.3125 41.5C67.1882 41.5 67.069 41.5494 66.981 41.6373C66.8931 41.7252 66.8438 41.8444 66.8438 41.9688C66.8438 42.0931 66.8931 42.2123 66.981 42.3002C67.069 42.3881 67.1882 42.4375 67.3125 42.4375C67.4368 42.4375 67.556 42.3881 67.644 42.3002C67.7319 42.2123 67.7812 42.0931 67.7812 41.9688C67.7812 41.8444 67.7319 41.7252 67.644 41.6373C67.556 41.5494 67.4368 41.5 67.3125 41.5ZM62.8594 42.9062C62.6729 42.9062 62.4941 42.9803 62.3622 43.1122C62.2303 43.2441 62.1562 43.4229 62.1562 43.6094C62.1562 43.7959 62.2303 43.9747 62.3622 44.1066C62.4941 44.2384 62.6729 44.3125 62.8594 44.3125C63.0459 44.3125 63.2247 44.2384 63.3566 44.1066C63.4884 43.9747 63.5625 43.7959 63.5625 43.6094C63.5625 43.4229 63.4884 43.2441 63.3566 43.1122C63.2247 42.9803 63.0459 42.9062 62.8594 42.9062ZM66.1406 43.375C65.9541 43.375 65.7753 43.4491 65.6434 43.5809C65.5116 43.7128 65.4375 43.8916 65.4375 44.0781C65.4375 44.2646 65.5116 44.4434 65.6434 44.5753C65.7753 44.7072 65.9541 44.7812 66.1406 44.7812C66.3271 44.7812 66.5059 44.7072 66.6378 44.5753C66.7697 44.4434 66.8438 44.2646 66.8438 44.0781C66.8438 43.8916 66.7697 43.7128 66.6378 43.5809C66.5059 43.4491 66.3271 43.375 66.1406 43.375Z" fill="#DAD1BF"/>
<path d="M49.5 165.406C46.14 165.406 43.4062 168.14 43.4062 171.5C43.4062 174.86 46.14 177.594 49.5 177.594C52.86 177.594 55.5938 174.86 55.5938 171.5C55.5938 168.14 52.86 165.406 49.5 165.406ZM49.5 166.344C52.343 166.344 54.6562 168.657 54.6562 171.5C54.6562 174.343 52.343 176.656 49.5 176.656C46.657 176.656 44.3438 174.343 44.3438 171.5C44.3438 168.657 46.657 166.344 49.5 166.344ZM48.5625 168.219C48.4382 168.219 48.319 168.268 48.231 168.356C48.1431 168.444 48.0938 168.563 48.0938 168.688C48.0938 168.812 48.1431 168.931 48.231 169.019C48.319 169.107 48.4382 169.156 48.5625 169.156C48.6868 169.156 48.806 169.107 48.894 169.019C48.9819 168.931 49.0312 168.812 49.0312 168.688C49.0312 168.563 48.9819 168.444 48.894 168.356C48.806 168.268 48.6868 168.219 48.5625 168.219ZM51.1406 168.688C50.9541 168.688 50.7753 168.762 50.6434 168.893C50.5116 169.025 50.4375 169.204 50.4375 169.391C50.4375 169.577 50.5116 169.756 50.6434 169.888C50.7753 170.02 50.9541 170.094 51.1406 170.094C51.3271 170.094 51.5059 170.02 51.6378 169.888C51.7697 169.756 51.8438 169.577 51.8438 169.391C51.8438 169.204 51.7697 169.025 51.6378 168.893C51.5059 168.762 51.3271 168.688 51.1406 168.688ZM47.1562 170.094C46.9076 170.094 46.6692 170.193 46.4933 170.368C46.3175 170.544 46.2188 170.783 46.2188 171.031C46.2188 171.28 46.3175 171.518 46.4933 171.694C46.6692 171.87 46.9076 171.969 47.1562 171.969C47.4049 171.969 47.6433 171.87 47.8192 171.694C47.995 171.518 48.0938 171.28 48.0938 171.031C48.0938 170.783 47.995 170.544 47.8192 170.368C47.6433 170.193 47.4049 170.094 47.1562 170.094ZM49.9688 171.031C49.8444 171.031 49.7252 171.081 49.6373 171.169C49.5494 171.256 49.5 171.376 49.5 171.5C49.5 171.624 49.5494 171.744 49.6373 171.831C49.7252 171.919 49.8444 171.969 49.9688 171.969C50.0931 171.969 50.2123 171.919 50.3002 171.831C50.3881 171.744 50.4375 171.624 50.4375 171.5C50.4375 171.376 50.3881 171.256 50.3002 171.169C50.2123 171.081 50.0931 171.031 49.9688 171.031ZM52.3125 171.5C52.1882 171.5 52.069 171.549 51.981 171.637C51.8931 171.725 51.8438 171.844 51.8438 171.969C51.8438 172.093 51.8931 172.212 51.981 172.3C52.069 172.388 52.1882 172.438 52.3125 172.438C52.4368 172.438 52.556 172.388 52.644 172.3C52.7319 172.212 52.7812 172.093 52.7812 171.969C52.7812 171.844 52.7319 171.725 52.644 171.637C52.556 171.549 52.4368 171.5 52.3125 171.5ZM47.8594 172.906C47.6729 172.906 47.4941 172.98 47.3622 173.112C47.2303 173.244 47.1562 173.423 47.1562 173.609C47.1562 173.796 47.2303 173.975 47.3622 174.107C47.4941 174.238 47.6729 174.312 47.8594 174.312C48.0459 174.312 48.2247 174.238 48.3566 174.107C48.4884 173.975 48.5625 173.796 48.5625 173.609C48.5625 173.423 48.4884 173.244 48.3566 173.112C48.2247 172.98 48.0459 172.906 47.8594 172.906ZM51.1406 173.375C50.9541 173.375 50.7753 173.449 50.6434 173.581C50.5116 173.713 50.4375 173.892 50.4375 174.078C50.4375 174.265 50.5116 174.443 50.6434 174.575C50.7753 174.707 50.9541 174.781 51.1406 174.781C51.3271 174.781 51.5059 174.707 51.6378 174.575C51.7697 174.443 51.8438 174.265 51.8438 174.078C51.8438 173.892 51.7697 173.713 51.6378 173.581C51.5059 173.449 51.3271 173.375 51.1406 173.375Z" fill="#DAD1BF"/>
</svg>
